<!-- icon666.com - MILLIONS OF FREE VECTOR ICONS --><svg id="Capa_1" enable-background="new 0 0 512 512" viewBox="0 0 512 512" xmlns="http://www.w3.org/2000/svg"><g><g><path d="m49.874 187.045c-2.062 0-9.326-5.271-10.811-6.928-33.05-36.896-44.493-87.891-26.052-116.094 8.282-12.664 29.841-31.388 81.167-14.501 9.907 3.267 27.494 6.406 34.009-9.252 8.09-19.458 21.105-32.033 38.685-37.375 38.946-11.834 88.27 15.328 114.203 32.574 3.456 2.298 4.394 6.963 2.096 10.419s-6.961 4.394-10.419 2.096c-19.103-12.704-67.234-41.122-101.512-30.709-13.26 4.029-22.804 13.438-29.177 28.766-7.921 19.035-28.071 25.838-52.588 17.756-30.97-10.19-53.659-7.189-63.886 8.451-14.652 22.408-3.586 66.299 24.669 97.84 2.769 3.092 11.724 10.894 8.633 13.663-1.433 1.285-7.231 3.294-9.017 3.294z" fill="#c365af" style="fill: rgb(133, 58, 77);"></path></g><g><path clip-rule="evenodd" d="m110.409 287.91c-.487 14.877-.401 29.754.287 44.659 4.989-1.001 10.322-1.659 15.914-1.831l50.063-1.402c-5.333-86.801 8.057-174.288 39.684-236.457-.115 0-.201 0-.315 0-24.974 0-48.916 4.406-71.052 12.531-7.111 20.513-13.247 41.569-18.322 62.998-4.616 19.454-8.315 39.252-11.068 59.221-2.754 19.942-4.503 40.083-5.191 60.281z" fill="#dfa7d2" fill-rule="evenodd" style="fill: rgb(221, 138, 158);"></path></g><g><path clip-rule="evenodd" d="m216.356 92.88c-31.626 62.168-45.017 149.656-39.684 236.457.688 11.472 1.72 22.945 3.097 34.331 5.964 50.009 18.236 98.645 36.902 140.815 22.021-.086 43.239-3.576 63.11-10.013-10.81-19.941-19.727-41.455-26.723-64.056-6.824-21.972-11.813-44.945-15.025-68.376-1.548-11.358-2.667-22.802-3.383-34.303-.659-11.072-.946-22.201-.832-33.33.201-20.37 1.692-40.711 4.53-60.738 3.011-21.171 7.455-41.941 13.39-61.968 7.197-24.289 16.544-47.434 28.071-68.806-19.985-6.466-41.317-9.985-63.453-10.013z" fill="#dfa7d2" fill-rule="evenodd" style="fill: rgb(221, 138, 158);"></path></g><g><path clip-rule="evenodd" d="m113.161 364.411c2.294 21.371 5.935 42.628 11.039 63.627 5.219 21.572 11.985 42.857 20.387 63.742 22.25 8.211 46.336 12.703 71.453 12.703h.631c-18.666-42.17-30.938-90.806-36.902-140.815l-52.185 1.459c-5.047.143-9.835-.143-14.423-.716z" fill="#dfa7d2" fill-rule="evenodd" style="fill: rgb(221, 138, 158);"></path></g><g><path clip-rule="evenodd" d="m238.033 362.037c3.211 23.431 8.201 46.404 15.025 68.376 47.225-3.405 94.019-11.501 139.007-24.404 7.799-12.731 14.251-26.349 19.182-40.711-2.208-2.375-4.1-5.064-5.62-7.953z" fill="#dfa7d2" fill-rule="evenodd" style="fill: rgb(221, 138, 158);"></path></g><g><path clip-rule="evenodd" d="m233.818 294.404c-.115 11.129.172 22.258.832 33.33l170.003-4.778c3.641-7.868 9.835-14.305 17.577-18.281.057-1.974.086-4.005.086-6.008 0-17.881-2.294-35.247-6.595-51.812-54.394 27.637-117.503 43.458-181.903 47.549z" fill="#dfa7d2" fill-rule="evenodd" style="fill: rgb(221, 138, 158);"></path></g><g><path clip-rule="evenodd" d="m238.348 233.666c-2.839 20.027-4.33 40.368-4.53 60.738 64.4-4.091 127.509-19.912 181.902-47.549-5.161-19.855-13.218-38.537-23.684-55.588-45.361 23.775-98.75 37.908-153.688 42.399z" fill="#dfa7d2" fill-rule="evenodd" style="fill: rgb(221, 138, 158);"></path></g><g><path clip-rule="evenodd" d="m251.739 171.699c-5.935 20.027-10.38 40.797-13.39 61.968 54.938-4.492 108.327-18.625 153.688-42.399-4.387-7.095-9.175-13.933-14.337-20.427-7.168-9.012-15.082-17.423-23.627-25.09-.717-.658-1.434-1.287-2.15-1.917-30.337 14.046-64.601 23.316-100.184 27.865z" fill="#dfa7d2" fill-rule="evenodd" style="fill: rgb(221, 138, 158);"></path></g><g><path clip-rule="evenodd" d="m279.81 102.893c-11.527 21.371-20.874 44.516-28.071 68.806 35.583-4.549 69.848-13.818 100.184-27.866-20.76-18.167-45.218-32.243-72.113-40.94z" fill="#dfa7d2" fill-rule="evenodd" style="fill: rgb(221, 138, 158);"></path></g><g><path clip-rule="evenodd" d="m253.058 430.413c6.996 22.601 15.914 44.116 26.723 64.056 47.139-15.277 86.851-47.034 112.284-88.46-44.988 12.903-91.783 21-139.007 24.404z" fill="#dfa7d2" fill-rule="evenodd" style="fill: rgb(221, 138, 158);"></path></g><g><path clip-rule="evenodd" d="m45.837 414.936c23.942 34.846 58.379 61.968 98.75 76.845-8.401-20.885-15.168-42.17-20.387-63.742-26.436-2.89-52.672-7.267-78.363-13.103z" fill="#dfa7d2" fill-rule="evenodd" style="fill: rgb(221, 138, 158);"></path></g><g><path clip-rule="evenodd" d="m12.805 333.914c5.132 29.668 16.63 57.162 33.031 81.022 25.691 5.836 51.927 10.214 78.364 13.103-5.104-20.999-8.745-42.256-11.039-63.627-19.67-2.46-34.981-10.442-44.071-14.848l1.233-.687c-19.526-4.063-38.737-9.07-57.518-14.963z" fill="#dfa7d2" fill-rule="evenodd" style="fill: rgb(221, 138, 158);"></path></g><g><path clip-rule="evenodd" d="m9.795 298.667c0 12.016 1.032 23.803 3.011 35.247 18.781 5.894 37.992 10.9 57.518 14.963 8.688-4.864 22.537-12.76 40.372-16.307-.688-14.905-.774-29.782-.287-44.659-33.691-5.808-66.436-14.934-97.087-27.408-2.323 12.387-3.527 25.118-3.527 38.164z" fill="#dfa7d2" fill-rule="evenodd" style="fill: rgb(221, 138, 158);"></path></g><g><path clip-rule="evenodd" d="m33.135 203.484c-9.261 17.652-16.028 36.82-19.813 57.019 30.652 12.474 63.396 21.6 97.087 27.408.688-20.198 2.437-40.339 5.19-60.28-28.731-5.294-56.573-13.333-82.464-24.147z" fill="#dfa7d2" fill-rule="evenodd" style="fill: rgb(221, 138, 158);"></path></g><g><path clip-rule="evenodd" d="m33.135 203.484c25.892 10.814 53.733 18.854 82.464 24.146 2.753-19.969 6.451-39.767 11.068-59.221-19.555-3.605-38.565-8.669-56.543-15.163-14.739 14.705-27.269 31.641-36.989 50.238z" fill="#dfa7d2" fill-rule="evenodd" style="fill: rgb(221, 138, 158);"></path></g><g><path clip-rule="evenodd" d="m70.123 153.245c17.978 6.494 36.988 11.558 56.543 15.163 5.075-21.428 11.211-42.485 18.322-62.998-28.415 10.414-53.905 26.865-74.865 47.835z" fill="#dfa7d2" fill-rule="evenodd" style="fill: rgb(221, 138, 158);"></path></g><g><path clip-rule="evenodd" d="m431.347 79.061-77.274 66.689c.688 18.997 10.064 25.262 23.627 25.09l76.213-65.773c5.993-13.618-3.556-22.687-22.566-26.006z" fill="#f9f7f8" fill-rule="evenodd"></path></g><g><path clip-rule="evenodd" d="m443.562 40.038c-11.527 9.956-15.77 25.205-12.215 39.023 1.462 5.607 4.186 10.957 8.229 15.621 4.072 4.692 8.975 8.154 14.337 10.385 13.161 5.522 28.903 3.548 40.458-6.409 16.2-13.99 17.978-38.48 3.957-54.644-14.022-16.192-38.537-17.966-54.766-3.976z" fill="#d691c6" fill-rule="evenodd" style="fill: rgb(221, 138, 158);"></path></g><g><path clip-rule="evenodd" d="m351.923 143.833c-19.354-16.937-41.92-30.297-66.665-39.08 13.018 15.563 24.544 32.958 34.236 51.84 11.21-3.691 22.049-7.954 32.429-12.76z" fill="#d691c6" fill-rule="evenodd" style="fill: rgb(221, 138, 158);"></path></g><g><path clip-rule="evenodd" d="m377.7 170.84c-7.168-9.012-15.082-17.423-23.627-25.09l-2.15-1.917c-10.38 4.806-21.218 9.069-32.429 12.76 8.975 17.538 16.43 36.334 22.05 56.16 17.634-5.979 34.551-13.132 50.493-21.486-4.388-7.095-9.176-13.932-14.337-20.427z" fill="#d691c6" fill-rule="evenodd" style="fill: rgb(221, 138, 158);"></path></g><g><path clip-rule="evenodd" d="m415.72 246.855c-5.161-19.855-13.218-38.537-23.684-55.588-15.942 8.354-32.859 15.506-50.493 21.486 5.448 19.082 9.204 39.08 11.125 59.765 21.935-6.952 43.067-15.506 63.052-25.663z" fill="#d691c6" fill-rule="evenodd" style="fill: rgb(221, 138, 158);"></path></g><g><path clip-rule="evenodd" d="m415.72 246.855c-19.985 10.156-41.117 18.711-63.052 25.663.918 10.214 1.405 20.57 1.405 31.07 0 7.009-.229 13.933-.631 20.799l51.21-1.43c3.641-7.868 9.835-14.305 17.577-18.281.057-1.974.086-4.005.086-6.008 0-17.882-2.294-35.248-6.595-51.813z" fill="#d691c6" fill-rule="evenodd" style="fill: rgb(221, 138, 158);"></path></g><g><path clip-rule="evenodd" d="m405.627 357.345-56.113 1.574c-3.527 21.343-9.118 41.798-16.458 61.081 19.928-3.776 39.626-8.44 59.009-13.99 7.799-12.731 14.251-26.349 19.182-40.711-2.208-2.375-4.1-5.065-5.62-7.954z" fill="#d691c6" fill-rule="evenodd" style="fill: rgb(221, 138, 158);"></path></g><g><path clip-rule="evenodd" d="m392.065 406.01c-19.383 5.55-39.082 10.214-59.009 13.99-9.462 24.947-21.906 47.949-36.788 68.319 39.913-16.823 73.375-45.804 95.797-82.309z" fill="#d691c6" fill-rule="evenodd" style="fill: rgb(221, 138, 158);"></path></g><g><path clip-rule="evenodd" d="m439.06 94.081-73.174 63.141c4.129 4.377 8.057 8.898 11.813 13.618l76.213-65.773c-5.362-2.232-10.265-5.693-14.337-10.385-.171-.2-.343-.401-.515-.601z" fill="#dddaec" fill-rule="evenodd"></path></g><g><path clip-rule="evenodd" d="m494.371 98.659c16.2-13.99 17.978-38.48 3.957-54.644-2.495-2.89-5.333-5.321-8.401-7.295 9.347 15.821 6.337 36.506-8.086 48.951-11.527 9.956-27.268 11.93-40.458 6.408-2.036-.858-4.014-1.888-5.907-3.09 1.032 1.745 2.237 3.462 3.584 5.092l.516.601c4.072 4.692 8.975 8.154 14.337 10.385 13.161 5.522 28.902 3.548 40.458-6.408z" fill="#c365af" fill-rule="evenodd" style="fill: rgb(133, 58, 77);"></path></g><g><path d="m253.05 437.929c-3.905 0-7.202-3.019-7.488-6.975-.298-4.14 2.815-7.738 6.955-8.036 47.274-3.408 93.527-11.528 137.476-24.132 3.985-1.141 8.151 1.162 9.295 5.152 1.145 3.99-1.162 8.151-5.152 9.296-44.947 12.891-92.23 21.193-140.538 24.675-.184.013-.367.02-.548.02zm-128.84-2.375c-.273 0-.548-.015-.826-.045-26.68-2.916-53.331-7.373-79.21-13.245-4.048-.918-6.584-4.944-5.666-8.992s4.945-6.587 8.991-5.666c25.323 5.746 51.403 10.107 77.517 12.961 4.126.451 7.105 4.161 6.654 8.287-.42 3.85-3.676 6.7-7.46 6.7z" fill="#c365af" style="fill: rgb(133, 58, 77);"></path></g><g><path d="m238.34 241.182c-3.873 0-7.16-2.975-7.482-6.903-.338-4.137 2.741-7.764 6.877-8.103 55.426-4.531 107.576-18.905 150.812-41.565 3.674-1.925 8.217-.509 10.144 3.168 1.927 3.676.509 8.218-3.167 10.145-45.007 23.588-99.146 38.538-156.564 43.233-.208.017-.414.025-.62.025zm-122.733-6.036c-.452 0-.91-.041-1.37-.126-29.794-5.489-58.055-13.766-83.999-24.603-3.83-1.599-5.638-6.001-4.038-9.831 1.599-3.83 6-5.639 9.831-4.038 24.958 10.425 52.187 18.395 80.929 23.69 4.082.752 6.781 4.67 6.029 8.752-.667 3.622-3.827 6.156-7.382 6.156z" fill="#c365af" style="fill: rgb(133, 58, 77);"></path></g><g><path d="m233.811 301.919c-3.933 0-7.239-3.059-7.492-7.039-.263-4.142 2.881-7.713 7.023-7.976 65.024-4.131 126.912-20.296 178.975-46.749 3.702-1.879 8.223-.404 10.104 3.296 1.88 3.7.404 8.224-3.296 10.104-53.871 27.37-117.784 44.089-184.83 48.348-.163.011-.324.016-.484.016zm-123.394-6.493c-.424 0-.853-.036-1.285-.111-34.766-5.993-67.954-15.364-98.643-27.853-3.844-1.564-5.692-5.949-4.128-9.793 1.565-3.845 5.949-5.692 9.793-4.128 29.688 12.082 61.83 21.153 95.531 26.962 4.09.705 6.834 4.592 6.129 8.682-.63 3.659-3.806 6.241-7.397 6.241zm141.312-116.212c-3.726 0-6.96-2.77-7.445-6.563-.526-4.117 2.385-7.881 6.501-8.407 35.905-4.59 68.87-13.751 97.979-27.23 3.764-1.747 8.232-.105 9.977 3.662 1.744 3.766.105 8.233-3.662 9.977-30.507 14.127-64.955 23.716-102.389 28.5-.322.041-.643.061-.961.061zm-125.054-3.289c-.452 0-.91-.041-1.371-.126-20.144-3.713-39.569-8.923-57.734-15.486-3.904-1.41-5.925-5.717-4.515-9.621 1.41-3.903 5.715-5.926 9.621-4.514 17.392 6.283 36.016 11.276 55.353 14.841 4.081.752 6.78 4.671 6.028 8.753-.668 3.62-3.828 6.153-7.382 6.153z" fill="#c365af" style="fill: rgb(133, 58, 77);"></path></g><g fill="#c365af"><path d="m71.854 341.519c4.063.845 22.51 1.169 22.483 8.559-.501 7.134 1.002 9.268-24.006 6.315" fill="#c365af" style="fill: rgb(133, 58, 77);"></path><path d="m70.331 356.393c-.507 0-1.022-.051-1.539-.159-19.612-4.08-39.206-9.178-58.237-15.15-3.96-1.243-6.163-5.46-4.92-9.42 1.242-3.961 5.461-6.165 9.42-4.92 18.56 5.824 37.67 10.795 56.799 14.775 4.063.845 22.51 1.169 22.483 8.559-.737 3.547 1.003 9.268-24.006 6.315z" fill="#c365af" style="fill: rgb(133, 58, 77);"></path></g><g><path d="m144.589 499.298c-2.977 0-5.795-1.78-6.974-4.712-16.28-40.458-27.021-83.983-31.925-129.367-.446-4.126 2.538-7.833 6.664-8.279 4.128-.449 7.832 2.538 8.279 6.664 4.756 44.012 15.16 86.193 30.926 125.371 1.549 3.85-.316 8.228-4.166 9.777-.92.37-1.87.546-2.804.546zm-33.9-159.214c-3.989 0-7.312-3.137-7.501-7.163-3.504-74.708 8.494-154.229 34.698-229.968 1.357-3.923 5.638-6.002 9.559-4.645 3.922 1.357 6.002 5.637 4.645 9.559-25.585 73.952-37.304 151.531-33.889 224.35.195 4.146-3.009 7.665-7.154 7.859-.119.006-.239.008-.358.008z" fill="#c365af" style="fill: rgb(133, 58, 77);"></path></g><g><path clip-rule="evenodd" d="m179.772 363.67-52.184 1.453c-5.05.15-9.84-.14-14.429-.711-16.232-2.034-29.499-7.826-38.747-12.264-.04-.01-.07-.03-.11-.05-2.204-1.062-2.295-4.168-.15-5.341 2.084-1.142 4.399-2.395 6.092-3.256 8.066-4.108 18.336-8.517 30.451-10.932 4.99-1.002 10.32-1.653 15.912-1.834l50.069-1.403c.371 6.293.852 12.575 1.443 18.857.471 5.17 1.032 10.33 1.653 15.481z" fill="#f9f7f8" fill-rule="evenodd"></path></g><g><path clip-rule="evenodd" d="m234.649 327.734c.717 11.501 1.835 22.945 3.383 34.303l167.595-4.692c7.197-8.869 7.398-21.6-.975-34.389z" fill="#f9f7f8" fill-rule="evenodd"></path></g><g><path clip-rule="evenodd" d="m401.097 340.265c.172 6.18 1.806 11.987 4.53 17.08 1.52 2.89 3.412 5.579 5.62 7.953 7.34 8.039 18.007 12.931 29.763 12.617 21.448-.601 38.336-18.424 37.734-39.824s-18.466-38.251-39.913-37.65c-5.993.172-11.613 1.688-16.602 4.234-7.742 3.977-13.935 10.414-17.577 18.281-2.437 5.265-3.727 11.129-3.555 17.309z" fill="#eb5468" fill-rule="evenodd"></path></g><g><path clip-rule="evenodd" d="m478.744 338.091c-.545-19.111-14.853-34.589-33.203-37.249 8.172 6.866 13.448 17.051 13.792 28.524.602 21.371-16.315 39.223-37.734 39.824-2.294.057-4.53-.086-6.71-.401 7.025 5.922 16.2 9.413 26.121 9.126 21.448-.601 38.336-18.424 37.734-39.824z" fill="#e5384f" fill-rule="evenodd"></path></g><g><path clip-rule="evenodd" d="m179.772 363.67-52.184 1.453c-5.05.15-9.84-.14-14.429-.711-16.232-2.034-29.499-7.826-38.747-12.264-.04-.01-.07-.03-.11-.05-2.204-1.062-2.295-4.168-.15-5.341 2.084-1.142 4.399-2.395 6.092-3.256 6.483 2.254 13.848 4.208 21.934 5.23 4.589.571 9.409.802 14.429.721l61.512-1.263h.02c8.257 1.633 9.509 11.282 1.633 15.481z" fill="#dddaec" fill-rule="evenodd"></path></g><g><path clip-rule="evenodd" d="m401.183 341.982-165.043 4.148c.545 5.321 1.176 10.614 1.892 15.907l111.481-3.118 56.113-1.574c-2.465-4.635-4.042-9.813-4.443-15.363z" fill="#dddaec" fill-rule="evenodd"></path></g><g><path d="m216.675 512c-2.883 0-5.632-1.668-6.875-4.473-55.553-125.394-55.615-309.026-.142-418.055 1.882-3.699 6.408-5.17 10.106-3.29 3.699 1.882 5.172 6.407 3.29 10.106-53.656 105.458-53.442 283.422.489 405.152 1.681 3.795-.032 8.234-3.827 9.915-.99.437-2.023.645-3.041.645zm63.113-10.014c-2.666 0-5.249-1.422-6.611-3.93-62.492-115.085-62.484-282.775.018-398.729 1.967-3.653 6.524-5.02 10.18-3.05 3.654 1.969 5.019 6.528 3.049 10.181-60.266 111.807-60.282 273.481-.039 384.425 1.98 3.647.629 8.21-3.018 10.19-1.139.619-2.367.913-3.579.913z" fill="#c365af" style="fill: rgb(133, 58, 77);"></path></g></g></svg>